<?xml version="1.0" standalone="no"?>
<!DOCTYPE svg PUBLIC "-//W3C//DTD SVG 20010904//EN"
 "http://www.w3.org/TR/2001/REC-SVG-20010904/DTD/svg10.dtd">
<svg version="1.0" xmlns="http://www.w3.org/2000/svg"
 width="512" height="512" viewBox="0 0 512.000000 512.000000"
 preserveAspectRatio="xMidYMid meet">
<metadata>
Created by potrace 1.16, written by Peter Selinger 2001-2019
</metadata>
<g transform="translate(0.000000,512.000000) scale(0.500000,-0.500000)"
fill="#000000" fill-rule="evenodd" stroke="none">
<path d="M551 931 c-9 -3 -14 -9 -14 -20 0 -12 5 -16 26 -23 6 -2 19 -6 29
-10 27 -12 37 -15 82 -24 53 -10 125 -21 133 -20 30 3 37 43 10 56 -7 4 -82
21 -131 31 l-42 8 -40 1 c-22 1 -41 1 -43 1 -3 1 -7 0 -10 0z"/>
<path d="M354 916 c-18 -6 -82 -34 -117 -51 -42 -19 -50 -24 -75 -43 -8 -6
-20 -14 -27 -18 -10 -6 -12 -8 -15 -12 -7 -13 -1 -27 13 -30 6 -1 7 -1 19 4 8
2 25 7 40 10 36 9 68 23 149 65 43 22 46 24 51 34 13 25 -11 51 -38 41z"/>
<path d="M708 817 c-49 -6 -87 -25 -123 -60 -58 -57 -77 -144 -48 -222 26 -71
89 -123 164 -136 12 -2 43 -2 59 -1 84 10 154 70 178 152 12 45 10 87 -6 132
-27 74 -94 127 -175 136 -22 2 -27 2 -49 -1z m37 -70 c22 -2 32 -5 52 -15 35
-18 57 -43 69 -81 8 -22 9 -31 7 -53 -6 -78 -71 -134 -149 -128 -49 3 -90 30
-113 74 -21 41 -21 90 2 132 19 36 61 65 104 70 5 1 10 2 10 2 0 0 8 -1 18 -1z"/>
<path d="M728 714 c-82 -11 -128 -103 -87 -174 41 -74 143 -82 195 -16 58 73
10 182 -83 190 -13 1 -13 1 -25 0z m-28 -36 c42 -12 48 -67 11 -88 -38 -21
-82 14 -71 55 6 18 20 32 39 35 11 1 11 1 21 -2z m91 -100 c14 -9 14 -30 0
-38 -15 -9 -35 5 -32 22 2 16 19 24 32 16z"/>
<path d="M239 760 c-85 -11 -154 -71 -176 -153 -6 -22 -7 -26 -8 -48 -1 -32 3
-54 13 -82 8 -21 11 -27 23 -44 82 -120 253 -126 341 -12 28 35 43 77 45 121
2 48 -10 89 -37 128 -45 65 -123 100 -201 90z m39 -71 c48 -4 89 -31 111 -74
18 -36 21 -70 9 -108 -6 -20 -12 -30 -26 -46 -64 -76 -185 -62 -230 26 -13 26
-17 46 -14 74 4 49 30 90 74 113 26 13 45 17 76 15z"/>
<path d="M244 654 c-92 -13 -133 -122 -73 -193 60 -72 177 -45 203 45 19 70
-32 143 -103 148 -4 1 -10 1 -11 1 -2 1 -9 0 -16 -1z m-11 -33 c32 -10 44 -49
24 -76 -22 -28 -63 -25 -81 6 -21 38 14 82 57 70z m89 -100 c14 -7 15 -29 2
-37 -15 -10 -33 0 -33 17 -1 18 15 27 31 20z"/>
<path d="M530 305 c-20 -3 -37 -11 -50 -24 -8 -8 -12 -15 -28 -44 -14 -25 -15
-28 -16 -33 -1 -14 8 -26 19 -25 5 1 5 1 15 10 12 12 21 17 45 26 25 9 30 9
60 0 22 -7 35 -13 44 -22 8 -9 14 -10 22 -4 8 5 11 13 8 25 -2 9 -34 57 -46
68 -19 19 -45 27 -73 23z"/>
</g>
</svg>
