<?xml version="1.0" standalone="no"?>
<!DOCTYPE svg PUBLIC "-//W3C//DTD SVG 20010904//EN"
 "http://www.w3.org/TR/2001/REC-SVG-20010904/DTD/svg10.dtd">
<svg version="1.0" xmlns="http://www.w3.org/2000/svg"
 width="512" height="512" viewBox="0 0 512.000000 512.000000"
 preserveAspectRatio="xMidYMid meet">
<metadata>
Created by potrace 1.16, written by Peter Selinger 2001-2019
</metadata>
<g transform="translate(0.000000,512.000000) scale(0.500000,-0.500000)"
fill="#000000" fill-rule="evenodd" stroke="none">
<path d="M918 873 c-2 -10 -12 -23 -20 -28 -9 -6 -28 -9 -38 -6 -7 2 -6 1 2
-4 5 -2 9 -5 10 -6 2 -1 19 -2 -174 2 -89 1 -162 2 -163 2 0 -1 -2 -123 -2
-124 1 0 232 -4 260 -4 l15 0 0 -2 c-1 -1 -54 -128 -119 -280 -66 -153 -119
-278 -119 -278 0 -1 20 -1 43 -1 l43 -1 3 5 c1 3 55 130 120 283 l118 278 1
41 c0 23 1 42 1 43 2 3 15 13 19 15 6 2 20 2 29 1 9 -1 10 -1 2 2 -11 4 -24
16 -28 26 -3 6 -4 17 -2 28 1 10 1 12 -1 8z"/>
<path d="M275 706 c-31 -3 -65 -15 -92 -32 -19 -11 -25 -17 -43 -34 -76 -78
-85 -198 -22 -286 13 -18 33 -37 51 -50 17 -14 25 -18 45 -26 85 -35 180 -16
245 49 46 47 69 110 64 175 -10 110 -95 195 -204 205 -21 1 -30 1 -44 -1z m45
-122 c34 -7 58 -26 73 -57 18 -38 11 -81 -18 -112 -28 -31 -71 -42 -111 -27
-21 8 -37 20 -49 39 -24 36 -24 79 1 115 23 34 64 51 104 42z"/>
</g>
</svg>
